 http://img210.imageshack.us/img210/5512/exdp.jpg 
http://img29.imageshack.us/img29/5366/coverapj.jpg 
http://img840.imageshack.us/img840/7983/97400452.png 
http://img441.imageshack.us/img441/7010/21325417.png 
http://img256.imageshack.us/img256/1524/11082106.png 
http://img839.imageshack.us/img839/479/73046777.png 
http://img405.imageshack.us/img405/5034/85723023.png 
http://img705.imageshack.us/img705/2217/80745400.png 
http://img198.imageshack.us/img198/2553/15852911.png 
http://img843.imageshack.us/img843/7515/29094577.png 
http://img841.imageshack.us/img841/8130/12591393.png 
http://img256.imageshack.us/img256/6032/95028975.png
Format                                   : Matroska
Format version                           : Version 2
Duration                                 : 1h 34mn
Overall bit rate                         : 1 310 Kbps
Format                                   : AVC
Format/Info                              : Advanced Video Codec
Duration                                 : 1h 34mn
Bit rate                                 : 867 Kbps
Width                                    : 1 280 pixels
Height                                   : 680 pixels
Format                                   : AC-3
Format/Info                              : Audio Coding 3
Mode extension                           : CM (complete main)
Format settings, Endianness              : Big
Muxing mode                              : Header stripping
Codec ID                                 : A_AC3
Duration                                 : 1h 34mn
Bit rate mode                            : Constant
Bit rate                                 : 256 Kbps
Channel(s)                               : 6 channels
Channel positions                        : Front: L C R, Side: L R, LFE
Sampling rate                            : 48.0 KHz
Stream size                              : 173 MiB (20%)
Title                                    : K@rtik
Language                                 : English
Format                                   : AC-3
Format/Info                              : Audio Coding 3
Codec ID                                 : A_AC3
Duration                                 : 1h 34mn
Bit rate mode                            : Constant
Bit rate                                 : 192 Kbps
Channel(s)                               : 2 channels
Channel positions                        : Front: L R
Sampling rate                            : 48.0 KHz
Stream size                              : 129 MiB (15%)
Title                                    : K@rtik
Language                                 : Hindi